<?xml version="1.0" standalone="no"?>
<svg xmlns:xlink="http://www.w3.org/1999/xlink" id="wave" style="transform:rotate(0deg); transition: 0.3s" viewBox="0 0 1440 150" version="1.1" xmlns="http://www.w3.org/2000/svg"><defs><linearGradient id="sw-gradient-0" x1="0" x2="0" y1="1" y2="0"><stop stop-color="rgba(62, 120.971, 243, 1)" offset="0%"/><stop stop-color="rgba(11, 255, 245.907, 1)" offset="100%"/></linearGradient></defs><path style="transform:translate(0, 0px); opacity:1" fill="url(#sw-gradient-0)" d="M0,75L20,62.5C40,50,80,25,120,17.5C160,10,200,20,240,32.5C280,45,320,60,360,55C400,50,440,25,480,15C520,5,560,10,600,20C640,30,680,45,720,65C760,85,800,110,840,110C880,110,920,85,960,85C1000,85,1040,110,1080,115C1120,120,1160,105,1200,87.5C1240,70,1280,50,1320,52.5C1360,55,1400,80,1440,97.5C1480,115,1520,125,1560,117.5C1600,110,1640,85,1680,77.5C1720,70,1760,80,1800,80C1840,80,1880,70,1920,62.5C1960,55,2000,50,2040,47.5C2080,45,2120,45,2160,42.5C2200,40,2240,35,2280,37.5C2320,40,2360,50,2400,45C2440,40,2480,20,2520,20C2560,20,2600,40,2640,57.5C2680,75,2720,90,2760,92.5C2800,95,2840,85,2860,80L2880,75L2880,150L2860,150C2840,150,2800,150,2760,150C2720,150,2680,150,2640,150C2600,150,2560,150,2520,150C2480,150,2440,150,2400,150C2360,150,2320,150,2280,150C2240,150,2200,150,2160,150C2120,150,2080,150,2040,150C2000,150,1960,150,1920,150C1880,150,1840,150,1800,150C1760,150,1720,150,1680,150C1640,150,1600,150,1560,150C1520,150,1480,150,1440,150C1400,150,1360,150,1320,150C1280,150,1240,150,1200,150C1160,150,1120,150,1080,150C1040,150,1000,150,960,150C920,150,880,150,840,150C800,150,760,150,720,150C680,150,640,150,600,150C560,150,520,150,480,150C440,150,400,150,360,150C320,150,280,150,240,150C200,150,160,150,120,150C80,150,40,150,20,150L0,150Z"/></svg>